# AST/ASF file generated using VICON BodyLanguage
# -----------------------------------------------
:version 1.10
:name VICON
:units
  mass 1.0
  length 0.45
  angle deg
:documentation
   .ast/.asf automatically generated from VICON data using
   VICON BodyBuilder and BodyLanguage model FoxedUp or BRILLIANT.MOD
:root
   order TX TY TZ RX RY RZ
   axis XYZ
   position 0 0 0  
   orientation 0 0 0 
:bonedata
  begin
     id 1 
     name lhipjoint
     direction 0.61886 -0.69539 0.365302 
     length 2.20474 
     axis 0 0 0  XYZ
  end
  begin
     id 2 
     name lfemur
     direction 0.34202 -0.939693 0  
     length 6.65149  
     axis 0 0 20  XYZ
    dof rx ry rz
    limits (-160.0 20.0)
           (-70.0 70.0)
           (-60.0 70.0)
  end
  begin
     id 3 
     name ltibia
     direction 0.34202 -0.939693 0   
     length 6.35814   
     axis 0 0 20   XYZ
    dof rx
    limits (-10.0 170.0)
  end
  begin
     id 4 
     name lfoot
     direction 0.101224 -0.278109 0.955201   
     length 2.18766   
     axis -90 7.62852e-016 20   XYZ
    dof rx rz
    limits (-45.0 90.0)
           (-70.0 20.0)
  end
  begin
     id 5 
     name ltoes
     direction 1.53524e-011 -4.21877e-011 1   
     length 1.09206   
     axis -90 7.62852e-016 20   XYZ
    dof rx
    limits (-90.0 20.0)
  end
  begin
     id 6 
     name rhipjoint
     direction -0.600207 -0.708087 0.371972   
     length 2.1652  
     axis 0 0 0  XYZ 
  end
  begin
     id 7 
     name rfemur
     direction -0.34202 -0.939693 0   
     length 6.54691   
     axis 0 0 -20   XYZ
    dof rx ry rz
    limits (-160.0 20.0)
           (-70.0 70.0)
           (-70.0 60.0)
  end
  begin
     id 8 
     name rtibia
     direction -0.34202 -0.939693 0   
     length 6.37474   
     axis 0 0 -20   XYZ
    dof rx
    limits (-10.0 170.0)
 end
 begin
     id 9 
     name rfoot
     direction -0.111266 -0.3057 0.945604   
     length 2.00903  
     axis -90 -7.62852e-016 -20   XYZ
    dof rx rz
    limits (-45.0 90.0)
           (-20.0 70.0)
  end
  begin
     id 10 
     name rtoes
     direction -1.5362e-011 -4.21913e-011 1   
     length 1.00221   
     axis -90 -7.62852e-016 -20   XYZ
    dof rx
    limits (-90.0 20.0)
  end
  begin
     id 11 
     name lowerback
     direction -0.0224561 0.999731 -0.00577314   
     length 2.10409   
     axis 0 0 0   XYZ
    dof rx ry rz
    limits (-20.0 45.0)
           (-30.0 30.0)
           (-30.0 30.0)
  end
  begin
     id 12 
     name upperback
     direction 0.0213126 0.999185 -0.0342817   
     length 2.09783   
     axis 0 0 0   XYZ
    dof rx ry rz
    limits (-20.0 45.0)
           (-30.0 30.0)
           (-30.0 30.0)
  end
  begin
     id 13 
     name thorax
     direction 0.0312356 0.999036 -0.0308451   
     length 2.09788   
     axis 0 0 0   XYZ
    dof rx ry rz
    limits (-20.0 45.0)
           (-30.0 30.0)
           (-30.0 30.0)
  end
  begin
     id 14 
     name lowerneck
     direction -0.0114419 0.996481 0.0830329   
     length 1.38575   
     axis 0 0 0   XYZ
    dof rx ry rz
    limits (-20.0 45.0)
           (-30.0 30.0)
           (-30.0 30.0)
  end
  begin
     id 15 
     name upperneck
     direction -0.0075675 0.996187 -0.0869092   
     length 1.39401   
     axis 0 0 0   XYZ
    dof rx ry rz
    limits (-20.0 45.0)
           (-30.0 30.0)
           (-30.0 30.0)
  end
  begin
     id 16
     name head
     direction -0.00222073 0.999264 -0.0382974  
     length 1.3964  
     axis 0 0 0   XYZ
    dof rx ry rz
    limits (-20.0 45.0)
           (-30.0 30.0)
           (-30.0 30.0)
  end
  begin
     id 17 
     name lclavicle
     direction 0.965962 0.222138 0.132556  
     length 2.81514  
     axis 0 0 0   XYZ
    dof ry rz
    limits (-20.0 10.0)
           (0.0 20.0)
  end
  begin
     id 18 
     name lhumerus
     direction 1 -4.48972e-011 7.03471e-018   
     length 4.47366   
     axis 180 -30 -90   XYZ
    dof rx ry rz
    limits (-60.0 90.0)
           (-90.0 90.0)
           (-90.0 90.0)
  end
  begin
     id 19
     name lradius
     direction 1 -4.48951e-011 -6.22192e-028   
     length 3.19948   
     axis 180 -30 -90   XYZ
    dof rx
    limits (-10.0 170.0)
  end
  begin
     id 20
     name lwrist
     direction 1 -4.48967e-011 -1.24264e-027   
     length 1.59974   
     axis 1.40095e-015 90 90   XYZ
    dof ry
    limits (-180.0 0.0)
 end
  begin
     id 21 
     name lhand
     direction 1 -4.4897e-011 -2.48528e-027   
     length 0.492667   
     axis 1.58582e-015 90 90   XYZ
    dof rx rz
    limits (-90.0 90.0)
           (-45.0 45.0)
  end
  begin
     id 22 
     name lfingers
     direction 1 -4.48996e-011 -4.97056e-027   
     length 0.397201   
     axis 3.17164e-015 90 90   XYZ
    dof rx
    limits (0.0 90.0)
  end
  begin
     id 23
     name lthumb
     direction 0.707107 -6.34981e-011 0.707107   
     length 0.570303   
     axis -90 45 2.85299e-015   XYZ
    dof rx rz
    limits (-45.0 45.0)
           (-45.0 45.0)
  end
  begin
     id 24 
     name rclavicle
     direction -0.961164 0.229034 0.153972   
     length 3.09348  
     axis 0 0 0   XYZ 
    dof ry rz
    limits (-10.0 20.0)
           (-20.0 0.0)
  end
  begin
     id 25 
     name rhumerus
     direction -1 -4.48971e-011 -9.06263e-028  
     length 4.3269   
     axis 180 30 90   XYZ
    dof rx ry rz
    limits (-90.0 60.0)
           (-90.0 90.0)
           (-90.0 90.0)
  end
  begin
     id 26 
     name rradius
     direction -1 -4.48953e-011 1.44659e-027   
     length 3.1896   
     axis 180 30 90   XYZ
    dof rx
    limits (-10.0 170.0)
  end
  begin
     id 27 
     name rwrist
     direction -1 -4.48988e-011 -1.24264e-027   
     length 1.5948   
     axis 1.40095e-015 -90 -90   XYZ
    dof ry
    limits (-180.0 0.0)
  end
  begin
     id 28
     name rhand
     direction -1 -4.49033e-011 -2.48528e-027   
     length 0.464496   
     axis 1.58582e-015 -90 -90   XYZ
    dof rx rz
    limits (-90.0 90.0)
           (-45.0 45.0)
  end
  begin
     id 29
     name rfingers
     direction -1 -4.48905e-011 -4.97056e-027   
     length 0.374489   
     axis 3.17164e-015 -90 -90   XYZ
    dof rx
    limits (0.0 90.0)
  end
  begin
     id 30
     name rthumb
     direction -0.707107 -6.34909e-011 0.707107   
     length 0.537693   
     axis -90 -45 -2.85299e-015   XYZ
    dof rx rz
    limits (-45.0 45.0)
           (-45.0 45.0)
  end
:hierarchy
  begin
    root lhipjoint rhipjoint lowerback
    lhipjoint lfemur
    lfemur ltibia
    ltibia lfoot
    lfoot ltoes
    rhipjoint rfemur
    rfemur rtibia
    rtibia rfoot
    rfoot rtoes
    lowerback upperback
    upperback thorax
    thorax lowerneck lclavicle rclavicle
    lowerneck upperneck
    upperneck head
    lclavicle lhumerus
    lhumerus lradius
    lradius lwrist
    lwrist lhand lthumb
    lhand lfingers
    rclavicle rhumerus
    rhumerus rradius
    rradius rwrist
    rwrist rhand rthumb
    rhand rfingers
  end

#!OML:ASF G:\acrobat\cartwheel_test 2\Patient 1\Session 2\acrobat4.ASF
:FULLY-SPECIFIED
:DEGREES
32
root 7.87246 14.6777 2.53064 -8.80112 -1.43714 2.25488
lowerback -2.24323 -0.222258 -3.42632
upperback 3.61755 -0.204508 1.51357
thorax 5.02554 -0.265012 3.48132
lowerneck -11.4352 -1.80947 -1.88702
upperneck 10.3524 -2.16122 0.295205
head 5.00766 -1.11403 0.233714
rclavicle 1.2424e-016 -5.56597e-015
rhumerus 48.3407 -5.2697 -72.8183
rradius 16.0608
rwrist 41.0894
rhand -20.7671 -19.7717
rfingers 7.12502
rthumb 5.59919 -49.6777
lclavicle 1.2424e-016 -5.56597e-015
lhumerus 42.0698 -13.7663 41.1104
lradius 28.427
lwrist 8.25796
lhand -25.8371 1.21905
lfingers 7.12502
lthumb 0.703071 31.1976
rfemur -8.94999 -4.03509 18.3858
rtibia 48.4791
rfoot -22.7697 -17.6356
rtoes -15.1761
lfemur -9.51735 8.08409 -15.7378
ltibia 48.694
lfoot -25.8905 5.87787
ltoes -14.5611
33
root 7.87674 14.6772 2.52714 -8.75147 -1.47037 2.31371
lowerback -2.23727 -0.207805 -3.45203
upperback 3.63458 -0.183446 1.5007
thorax 5.03833 -0.255794 3.48386
lowerneck -11.4925 -1.8104 -1.89114
upperneck 10.4024 -2.1664 0.341092
head 5.03333 -1.11368 0.247495
rclavicle 4.91992e-015 -1.35174e-014
rhumerus 48.3842 -5.22351 -72.6612
rradius 16.0285
rwrist 40.8118
rhand -20.5681 -19.1458
rfingers 7.12502
rthumb 5.79138 -49.0466
lclavicle 4.91992e-015 -1.35174e-014
lhumerus 42.1029 -13.7673 41.0176
lradius 28.5133
lwrist 8.37992
lhand -25.9094 1.36905
lfingers 7.12502
lthumb 0.633226 31.3479
rfemur -9.02584 -4.01333 18.3207
rtibia 48.4734
rfoot -22.7035 -17.7015
rtoes -15.4244
lfemur -9.58596 8.13555 -15.825
ltibia 48.7027
lfoot -25.8582 5.95099
ltoes -14.5475
34
root 7.88028 14.6796 2.52482 -8.70028 -1.52683 2.26003
lowerback -2.22065 -0.178412 -3.35402
upperback 3.64788 -0.149497 1.50884
thorax 5.03895 -0.235538 3.43927
lowerneck -11.6149 -1.83231 -1.83998
upperneck 10.5036 -2.1981 0.309473
head 5.08459 -1.12935 0.225324
rclavicle 8.19987e-015 -1.19271e-014
rhumerus 48.3496 -4.98395 -72.2604
rradius 16.1017
rwrist 40.1603
rhand -20.3755 -19.0797
rfingers 7.12502
rthumb 5.97728 -48.9754
lclavicle 8.19987e-015 -1.19271e-014
lhumerus 42.16 -13.6493 41.1607
lradius 28.4836
lwrist 8.23404
lhand -25.948 1.29027
lfingers 7.12502
lthumb 0.59592 31.2692
rfemur -9.13784 -3.90303 18.384
rtibia 48.4628
rfoot -22.8934 -17.7162
rtoes -14.9584
lfemur -9.64755 8.21335 -15.7739
ltibia 48.7049
lfoot -25.8405 5.93733
ltoes -14.627
35
root 7.88603 14.6825 2.52268 -8.60827 -1.53367 2.29917
lowerback -2.26232 -0.174229 -3.34524
upperback 3.6248 -0.14257 1.49574
thorax 5.03776 -0.231061 3.4211
lowerneck -11.5693 -1.83469 -1.76452
upperneck 10.5067 -2.20315 0.216239
head 5.07608 -1.13524 0.184109
rclavicle -3.45388e-015 1.98785e-014
rhumerus 48.2866 -4.61268 -71.6527
rradius 16.1854
rwrist 39.592
rhand -20.6037 -19.6628
rfingers 7.12502
rthumb 5.75699 -49.5646
lclavicle -3.45388e-015 1.98785e-014
lhumerus 42.1546 -13.5149 41.406
lradius 28.4226
lwrist 7.98493
lhand -26.0149 1.2066
lfingers 7.12502
lthumb 0.531309 31.1857
rfemur -9.29836 -3.87259 18.3101
rtibia 48.4646
rfoot -23.0763 -17.628
rtoes -14.4464
lfemur -9.7516 8.18859 -15.8699
ltibia 48.7055
lfoot -25.8616 5.95514
ltoes -14.6852
36
root 7.89068 14.6828 2.52051 -8.51193 -1.51748 2.35467
lowerback -2.32555 -0.195699 -3.37073
upperback 3.60977 -0.167246 1.47327
thorax 5.06031 -0.24404 3.41048
lowerneck -11.4147 -1.82636 -1.66379
upperneck 10.382 -2.19758 0.103995
head 5.00909 -1.13595 0.135426
rclavicle 8.69683e-016 8.74653e-015
rhumerus 48.2539 -4.26014 -71.1656
rradius 16.2529
rwrist 39.1132
rhand -20.7223 -20.1064
rfingers 7.12502
rthumb 5.64243 -50.0113
lclavicle 8.69683e-016 8.74653e-015
lhumerus 42.1458 -13.4733 41.4275
lradius 28.4163
lwrist 7.95788
lhand -26.1172 1.23556
lfingers 7.12502
lthumb 0.432575 31.2149
rfemur -9.3933 -3.9435 18.2328
rtibia 48.4975
rfoot -22.8135 -17.5747
rtoes -14.774
lfemur -9.87073 8.15694 -15.9888
ltibia 48.7037
lfoot -25.8275 6.08237
ltoes -14.8458
37
root 7.89321 14.6815 2.51993 -8.48559 -1.51629 2.36987
lowerback -2.33685 -0.218485 -3.40084
upperback 3.62856 -0.196551 1.48835
thorax 5.08944 -0.261022 3.44135
lowerneck -11.3894 -1.82995 -1.58634
upperneck 10.3447 -2.19593 -0.0539695
head 4.9906 -1.14261 0.0743775
rclavicle 1.72446e-014 3.97569e-015
rhumerus 48.3405 -4.69431 -71.9921
rradius 16.2491
rwrist 39.9383
rhand -20.654 -20.1561
rfingers 7.12502
rthumb 5.70845 -50.0593
lclavicle 1.72446e-014 3.97569e-015
lhumerus 42.1254 -13.3936 41.4683
lradius 28.4153
lwrist 7.96242
lhand -26.1582 1.30973
lfingers 7.12502
lthumb 0.392961 31.2891
rfemur -9.40934 -3.98575 18.2081
rtibia 48.5605
rfoot -22.6376 -17.6116
rtoes -15.1531
lfemur -9.91123 8.16349 -16.0259
ltibia 48.7134
lfoot -25.7701 6.157
ltoes -14.8681
38
root 7.89619 14.6807 2.52043 -8.4979 -1.51014 2.41813
lowerback -2.30413 -0.21742 -3.44883
upperback 3.62742 -0.193293 1.47599
thorax 5.06966 -0.260561 3.4557
lowerneck -11.518 -1.85458 -1.46333
upperneck 10.5668 -2.22397 -0.236677
head 5.07773 -1.16445 -0.0070053
rclavicle 1.13556e-014 -1.43125e-014
rhumerus 48.3743 -5.16026 -72.7847
rradius 16.1795
rwrist 40.7204
rhand -20.8927 -20.34
rfingers 7.12502
rthumb 5.4779 -50.2492
lclavicle 1.13556e-014 -1.43125e-014
lhumerus 42.0969 -13.4222 41.4496
lradius 28.4961
lwrist 8.01281
lhand -26.0896 1.46834
lfingers 7.12502
lthumb 0.45919 31.4476
rfemur -9.41932 -4.01176 18.1309
rtibia 48.6453
rfoot -22.7307 -17.6432
rtoes -15.2435
lfemur -9.90362 8.13858 -16.0925
ltibia 48.7391
lfoot -25.7952 6.12781
ltoes -14.7854
39
root 7.90055 14.6786 2.51944 -8.50431 -1.52394 2.40742
lowerback -2.27086 -0.197365 -3.40898
upperback 3.64719 -0.168558 1.46052
thorax 5.06874 -0.246686 3.41872
lowerneck -11.6367 -1.87322 -1.35765
upperneck 10.7083 -2.25552 -0.307782
head 5.13964 -1.18086 -0.0507288
rclavicle 1.68967e-014 1.59028e-014
rhumerus 48.3913 -5.20399 -72.7918
rradius 16.1102
rwrist 40.7177
rhand -21.0014 -20.5968
rfingers 7.12502
rthumb 5.37299 -50.5087
lclavicle 1.68967e-014 1.59028e-014
lhumerus 42.1385 -13.5392 41.272
lradius 28.6162
lwrist 8.15576
lhand -26.0759 1.5103
lfingers 7.12502
lthumb 0.472462 31.4895
rfemur -9.45263 -4.01953 18.1242
rtibia 48.7233
rfoot -22.7618 -17.603
rtoes -15.1941
lfemur -9.9169 8.1649 -16.0913
ltibia 48.7673
lfoot -25.848 6.06816
ltoes -14.7049
40
root 7.90802 14.676 2.51627 -8.43122 -1.56651 2.43573
lowerback -2.34255 -0.174555 -3.4239
upperback 3.69529 -0.13532 1.47377
thorax 5.15764 -0.233659 3.44363
lowerneck -11.6632 -1.89201 -1.26642
upperneck 10.6134 -2.2823 -0.414519
head 5.11228 -1.19725 -0.100477
rclavicle -1.10822e-014 -1.03368e-014
rhumerus 48.5311 -5.26329 -72.7474
rradius 16.0622
rwrist 40.8069
rhand -20.8293 -20.652
rfingers 7.12502
rthumb 5.5392 -50.5596
lclavicle -1.10822e-014 -1.03368e-014
lhumerus 42.2205 -13.5503 41.1849
lradius 28.6701
lwrist 8.22155
lhand -26.1795 1.40404
lfingers 7.12502
lthumb 0.372378 31.3835
rfemur -9.5969 -4.03738 18.0619
rtibia 48.785
rfoot -22.749 -17.518
rtoes -15.1571
lfemur -10.0285 8.22901 -16.165
ltibia 48.7872
lfoot -25.8336 6.05576
ltoes -14.5699
41
root 7.91568 14.6776 2.51462 -8.35121 -1.55789 2.56021
lowerback -2.38261 -0.164621 -3.52206
upperback 3.6899 -0.114731 1.44766
thorax 5.17382 -0.226944 3.47326
lowerneck -11.6637 -1.93209 -1.18941
upperneck 10.605 -2.33463 -0.529904
head 5.10756 -1.22762 -0.152863
rclavicle -5.69021e-015 -1.19271e-014
rhumerus 48.5747 -5.33576 -72.7667
rradius 16.0133
rwrist 40.89
rhand -20.5179 -20.5703
rfingers 7.12502
rthumb 5.83985 -50.4698
lclavicle -5.69021e-015 -1.19271e-014
lhumerus 42.2477 -13.5738 41.18
lradius 28.7067
lwrist 8.20028
lhand -26.334 1.25318
lfingers 7.12502
lthumb 0.223134 31.2328
rfemur -9.722 -4.10325 17.8776
rtibia 48.8307
rfoot -22.7405 -17.476
rtoes -15.3809
lfemur -10.1311 8.20026 -16.3699
ltibia 48.7971
lfoot -25.8228 6.12456
ltoes -14.7642
42
root 7.92025 14.6798 2.5151 -8.37016 -1.50539 2.59282
lowerback -2.28647 -0.177858 -3.5221
upperback 3.66467 -0.134631 1.42192
thorax 5.0939 -0.234156 3.44466
lowerneck -11.6411 -1.94403 -1.19912
upperneck 10.6962 -2.35224 -0.506717
head 5.13266 -1.23535 -0.145826
rclavicle 8.34896e-015 7.15625e-015
rhumerus 48.5515 -5.63489 -73.1336
rradius 15.9256
rwrist 41.4273
rhand -20.3221 -20.068
rfingers 7.12502
rthumb 6.02885 -49.9622
lclavicle 8.34896e-015 7.15625e-015
lhumerus 42.2097 -13.6314 41.1858
lradius 28.74
lwrist 8.15554
lhand -26.4982 1.13776
lfingers 7.12502
lthumb 0.0645578 31.1175
rfemur -9.70213 -4.17881 17.8067
rtibia 48.8509
rfoot -22.7165 -17.5046
rtoes -15.5132
lfemur -10.1209 8.11958 -16.4425
ltibia 48.8131
lfoot -25.8596 6.18594
ltoes -14.8725
